<svg width="92" height="19" viewBox="0 0 92 19" fill="none" xmlns="http://www.w3.org/2000/svg">
<path d="M6.31534 17.9318C5.1108 17.9318 4.03693 17.7102 3.09375 17.267C2.15625 16.8239 1.41193 16.2131 0.860796 15.4347C0.309659 14.6563 0.0227273 13.7642 0 12.7585H3.57955C3.61932 13.4347 3.90341 13.983 4.43182 14.4034C4.96023 14.8239 5.58807 15.0341 6.31534 15.0341C6.89489 15.0341 7.40625 14.9062 7.84943 14.6506C8.2983 14.3892 8.64773 14.0284 8.89773 13.5682C9.15341 13.1023 9.28125 12.5682 9.28125 11.9659C9.28125 11.3523 9.15057 10.8125 8.8892 10.3466C8.63352 9.88068 8.27841 9.51705 7.82386 9.25568C7.36932 8.99432 6.84943 8.8608 6.2642 8.85511C5.75284 8.85511 5.25568 8.96023 4.77273 9.17045C4.29545 9.38068 3.9233 9.66761 3.65625 10.0312L0.375 9.44318L1.2017 0.238636H11.8722V3.25568H4.24432L3.79261 7.62784H3.89489C4.2017 7.19602 4.66477 6.83807 5.28409 6.55398C5.90341 6.26989 6.59659 6.12784 7.36364 6.12784C8.41477 6.12784 9.35227 6.375 10.1761 6.86932C11 7.36364 11.6506 8.04261 12.1278 8.90625C12.6051 9.7642 12.8409 10.7528 12.8352 11.8722C12.8409 13.0483 12.5682 14.0937 12.017 15.0085C11.4716 15.9176 10.7074 16.6335 9.72443 17.1562C8.74716 17.6733 7.6108 17.9318 6.31534 17.9318Z" fill="#524743"/>
<path d="M21.2528 18.0767C19.7869 18.071 18.5256 17.7102 17.4688 16.9943C16.4176 16.2784 15.608 15.2415 15.0398 13.8835C14.4773 12.5256 14.1989 10.892 14.2045 8.98295C14.2045 7.07955 14.4858 5.45739 15.0483 4.11648C15.6165 2.77557 16.4261 1.75568 17.4773 1.05682C18.5341 0.352273 19.7926 0 21.2528 0C22.7131 0 23.9688 0.352273 25.0199 1.05682C26.0767 1.76136 26.8892 2.78409 27.4574 4.125C28.0256 5.46023 28.3068 7.07955 28.3011 8.98295C28.3011 10.8977 28.017 12.5341 27.4489 13.892C26.8864 15.25 26.0795 16.2869 25.0284 17.0028C23.9773 17.7188 22.7187 18.0767 21.2528 18.0767ZM21.2528 15.017C22.2528 15.017 23.0511 14.5142 23.6477 13.5085C24.2443 12.5028 24.5398 10.9943 24.5341 8.98295C24.5341 7.65909 24.3977 6.55682 24.125 5.67614C23.858 4.79545 23.4773 4.13352 22.983 3.69034C22.4943 3.24716 21.9176 3.02557 21.2528 3.02557C20.2585 3.02557 19.4631 3.52273 18.8665 4.51705C18.2699 5.51136 17.9688 7 17.9631 8.98295C17.9631 10.3239 18.0966 11.4432 18.3636 12.3409C18.6364 13.233 19.0199 13.9034 19.5142 14.3523C20.0085 14.7955 20.5881 15.017 21.2528 15.017Z" fill="#524743"/>
<path d="M36.7763 18.0767C35.3104 18.071 34.049 17.7102 32.9922 16.9943C31.9411 16.2784 31.1314 15.2415 30.5632 13.8835C30.0007 12.5256 29.7223 10.892 29.728 8.98295C29.728 7.07955 30.0092 5.45739 30.5717 4.11648C31.1399 2.77557 31.9496 1.75568 33.0007 1.05682C34.0575 0.352273 35.3161 0 36.7763 0C38.2365 0 39.4922 0.352273 40.5433 1.05682C41.6001 1.76136 42.4126 2.78409 42.9808 4.125C43.549 5.46023 43.8303 7.07955 43.8246 8.98295C43.8246 10.8977 43.5405 12.5341 42.9723 13.892C42.4098 15.25 41.603 16.2869 40.5518 17.0028C39.5007 17.7188 38.2422 18.0767 36.7763 18.0767ZM36.7763 15.017C37.7763 15.017 38.5746 14.5142 39.1712 13.5085C39.7678 12.5028 40.0632 10.9943 40.0575 8.98295C40.0575 7.65909 39.9212 6.55682 39.6484 5.67614C39.3814 4.79545 39.0007 4.13352 38.5064 3.69034C38.0178 3.24716 37.4411 3.02557 36.7763 3.02557C35.782 3.02557 34.9865 3.52273 34.3899 4.51705C33.7933 5.51136 33.4922 7 33.4865 8.98295C33.4865 10.3239 33.62 11.4432 33.8871 12.3409C34.1598 13.233 34.5433 13.9034 35.0376 14.3523C35.532 14.7955 36.1115 15.017 36.7763 15.017Z" fill="#524743"/>
<path d="M56.3516 7.82812H53.8658C53.8326 7.57292 53.7647 7.34257 53.6619 7.13707C53.5592 6.93158 53.4233 6.75592 53.2543 6.61009C53.0852 6.46425 52.8847 6.35322 52.6527 6.27699C52.424 6.19744 52.1705 6.15767 51.892 6.15767C51.3982 6.15767 50.9723 6.27865 50.6143 6.5206C50.2597 6.76255 49.9863 7.11222 49.794 7.5696C49.6051 8.02699 49.5107 8.58049 49.5107 9.23011C49.5107 9.90625 49.6068 10.473 49.799 10.9304C49.9946 11.3845 50.268 11.7275 50.6193 11.9595C50.974 12.1882 51.3932 12.3026 51.8771 12.3026C52.1489 12.3026 52.3958 12.2678 52.6179 12.1982C52.8433 12.1286 53.0405 12.0275 53.2095 11.8949C53.3819 11.759 53.5227 11.5949 53.6321 11.4027C53.7448 11.2071 53.8227 10.9867 53.8658 10.7415L56.3516 10.7564C56.3085 11.2071 56.1776 11.6513 55.9588 12.0888C55.7434 12.5263 55.4467 12.9257 55.0689 13.2869C54.6911 13.6449 54.2304 13.9299 53.6868 14.142C53.1465 14.3542 52.5268 14.4602 51.8274 14.4602C50.906 14.4602 50.0807 14.258 49.3516 13.8537C48.6257 13.446 48.0523 12.8527 47.6314 12.0739C47.2105 11.295 47 10.3471 47 9.23011C47 8.10985 47.2138 7.16027 47.6413 6.38139C48.0689 5.60251 48.6473 5.01089 49.3764 4.60653C50.1056 4.20218 50.9226 4 51.8274 4C52.4439 4 53.014 4.08617 53.5376 4.25852C54.0613 4.42756 54.522 4.67614 54.9197 5.00426C55.3175 5.32907 55.6406 5.72846 55.8892 6.20242C56.1378 6.67637 56.2919 7.21828 56.3516 7.82812Z" fill="#02B87A"/>
<path d="M67.3699 9.23011C67.3699 10.3504 67.1544 11.3 66.7235 12.0788C66.2927 12.8577 65.7093 13.4493 64.9735 13.8537C64.2411 14.258 63.4191 14.4602 62.5076 14.4602C61.5929 14.4602 60.7692 14.2564 60.0368 13.8487C59.3043 13.4411 58.7226 12.8494 58.2917 12.0739C57.8642 11.295 57.6504 10.3471 57.6504 9.23011C57.6504 8.10985 57.8642 7.16027 58.2917 6.38139C58.7226 5.60251 59.3043 5.01089 60.0368 4.60653C60.7692 4.20218 61.5929 4 62.5076 4C63.4191 4 64.2411 4.20218 64.9735 4.60653C65.7093 5.01089 66.2927 5.60251 66.7235 6.38139C67.1544 7.16027 67.3699 8.10985 67.3699 9.23011ZM64.8542 9.23011C64.8542 8.56723 64.7598 8.0071 64.5708 7.54972C64.3852 7.09233 64.1168 6.74597 63.7654 6.51065C63.4174 6.27533 62.9982 6.15767 62.5076 6.15767C62.0204 6.15767 61.6012 6.27533 61.2498 6.51065C60.8985 6.74597 60.6284 7.09233 60.4395 7.54972C60.2538 8.0071 60.161 8.56723 60.161 9.23011C60.161 9.89299 60.2538 10.4531 60.4395 10.9105C60.6284 11.3679 60.8985 11.7143 61.2498 11.9496C61.6012 12.1849 62.0204 12.3026 62.5076 12.3026C62.9982 12.3026 63.4174 12.1849 63.7654 11.9496C64.1168 11.7143 64.3852 11.3679 64.5708 10.9105C64.7598 10.4531 64.8542 9.89299 64.8542 9.23011Z" fill="#02B87A"/>
<path d="M71.2676 4.1392V14.321H68.8066V4.1392H71.2676Z" fill="#02B87A"/>
<path d="M81.478 4.1392V14.321H79.3899L75.3381 8.4446H75.2734V14.321H72.8125V4.1392H74.9304L78.9375 10.0057H79.022V4.1392H81.478Z" fill="#02B87A"/>
<path d="M88.5289 7.19176C88.4958 6.82718 88.3483 6.5438 88.0865 6.34162C87.8279 6.13613 87.4584 6.03338 86.9778 6.03338C86.6596 6.03338 86.3945 6.07481 86.1824 6.15767C85.9702 6.24053 85.8111 6.35488 85.7051 6.50071C85.599 6.64323 85.5443 6.80729 85.541 6.9929C85.5344 7.14536 85.5642 7.27959 85.6305 7.3956C85.7001 7.5116 85.7995 7.61435 85.9288 7.70384C86.0614 7.79001 86.2205 7.86624 86.4061 7.93253C86.5917 7.99882 86.8005 8.05682 87.0325 8.10653L87.9075 8.3054C88.4113 8.41477 88.8554 8.56061 89.2399 8.7429C89.6277 8.92519 89.9525 9.14228 90.2143 9.39418C90.4795 9.64607 90.68 9.93608 90.8159 10.2642C90.9518 10.5923 91.0214 10.9602 91.0247 11.3679C91.0214 12.0109 90.859 12.5627 90.5375 13.0234C90.216 13.4841 89.7536 13.8371 89.1504 14.0824C88.5505 14.3277 87.8263 14.4503 86.9778 14.4503C86.126 14.4503 85.3836 14.3227 84.7505 14.0675C84.1175 13.8123 83.6253 13.4245 83.274 12.9041C82.9226 12.3838 82.742 11.7259 82.7321 10.9304H85.0886C85.1085 11.2585 85.1963 11.532 85.3521 11.7507C85.5079 11.9695 85.7217 12.1352 85.9934 12.2479C86.2685 12.3606 86.5867 12.4169 86.948 12.4169C87.2794 12.4169 87.5611 12.3722 87.7931 12.2827C88.0285 12.1932 88.2091 12.0689 88.335 11.9098C88.461 11.7507 88.5256 11.5684 88.5289 11.3629C88.5256 11.1707 88.466 11.0066 88.35 10.8707C88.234 10.7315 88.055 10.6122 87.813 10.5128C87.5744 10.41 87.2695 10.3156 86.8983 10.2294L85.8343 9.98082C84.9527 9.77865 84.2583 9.45218 83.7512 9.00142C83.2441 8.54735 82.9922 7.93419 82.9956 7.16193C82.9922 6.5322 83.1613 5.98035 83.5027 5.50639C83.844 5.03243 84.3163 4.66288 84.9196 4.39773C85.5228 4.13258 86.2105 4 86.9828 4C87.7716 4 88.456 4.13423 89.036 4.4027C89.6194 4.66785 90.0718 5.04072 90.3933 5.52131C90.7148 6.00189 90.8788 6.55871 90.8855 7.19176H88.5289Z" fill="#02B87A"/>
</svg>
