<svg width="90" height="19" viewBox="0 0 90 19" fill="none" xmlns="http://www.w3.org/2000/svg">
<path d="M6.31534 17.9318C5.1108 17.9318 4.03693 17.7102 3.09375 17.267C2.15625 16.8239 1.41193 16.2131 0.860796 15.4347C0.309659 14.6563 0.0227273 13.7642 0 12.7585H3.57955C3.61932 13.4347 3.90341 13.983 4.43182 14.4034C4.96023 14.8239 5.58807 15.0341 6.31534 15.0341C6.89489 15.0341 7.40625 14.9062 7.84943 14.6506C8.2983 14.3892 8.64773 14.0284 8.89773 13.5682C9.15341 13.1023 9.28125 12.5682 9.28125 11.9659C9.28125 11.3523 9.15057 10.8125 8.8892 10.3466C8.63352 9.88068 8.27841 9.51705 7.82386 9.25568C7.36932 8.99432 6.84943 8.8608 6.2642 8.85511C5.75284 8.85511 5.25568 8.96023 4.77273 9.17045C4.29545 9.38068 3.9233 9.66761 3.65625 10.0312L0.375 9.44318L1.2017 0.238636H11.8722V3.25568H4.24432L3.79261 7.62784H3.89489C4.2017 7.19602 4.66477 6.83807 5.28409 6.55398C5.90341 6.26989 6.59659 6.12784 7.36364 6.12784C8.41477 6.12784 9.35227 6.375 10.1761 6.86932C11 7.36364 11.6506 8.04261 12.1278 8.90625C12.6051 9.7642 12.8409 10.7528 12.8352 11.8722C12.8409 13.0483 12.5682 14.0937 12.017 15.0085C11.4716 15.9176 10.7074 16.6335 9.72443 17.1562C8.74716 17.6733 7.6108 17.9318 6.31534 17.9318Z" fill="#524743"/>
<path d="M21.2528 18.0767C19.7869 18.071 18.5256 17.7102 17.4688 16.9943C16.4176 16.2784 15.608 15.2415 15.0398 13.8835C14.4773 12.5256 14.1989 10.892 14.2045 8.98295C14.2045 7.07955 14.4858 5.45739 15.0483 4.11648C15.6165 2.77557 16.4261 1.75568 17.4773 1.05682C18.5341 0.352273 19.7926 0 21.2528 0C22.7131 0 23.9688 0.352273 25.0199 1.05682C26.0767 1.76136 26.8892 2.78409 27.4574 4.125C28.0256 5.46023 28.3068 7.07955 28.3011 8.98295C28.3011 10.8977 28.017 12.5341 27.4489 13.892C26.8864 15.25 26.0795 16.2869 25.0284 17.0028C23.9773 17.7188 22.7187 18.0767 21.2528 18.0767ZM21.2528 15.017C22.2528 15.017 23.0511 14.5142 23.6477 13.5085C24.2443 12.5028 24.5398 10.9943 24.5341 8.98295C24.5341 7.65909 24.3977 6.55682 24.125 5.67614C23.858 4.79545 23.4773 4.13352 22.983 3.69034C22.4943 3.24716 21.9176 3.02557 21.2528 3.02557C20.2585 3.02557 19.4631 3.52273 18.8665 4.51705C18.2699 5.51136 17.9688 7 17.9631 8.98295C17.9631 10.3239 18.0966 11.4432 18.3636 12.3409C18.6364 13.233 19.0199 13.9034 19.5142 14.3523C20.0085 14.7955 20.5881 15.017 21.2528 15.017Z" fill="#524743"/>
<path d="M36.7763 18.0767C35.3104 18.071 34.049 17.7102 32.9922 16.9943C31.9411 16.2784 31.1314 15.2415 30.5632 13.8835C30.0007 12.5256 29.7223 10.892 29.728 8.98295C29.728 7.07955 30.0092 5.45739 30.5717 4.11648C31.1399 2.77557 31.9496 1.75568 33.0007 1.05682C34.0575 0.352273 35.3161 0 36.7763 0C38.2365 0 39.4922 0.352273 40.5433 1.05682C41.6001 1.76136 42.4126 2.78409 42.9808 4.125C43.549 5.46023 43.8303 7.07955 43.8246 8.98295C43.8246 10.8977 43.5405 12.5341 42.9723 13.892C42.4098 15.25 41.603 16.2869 40.5518 17.0028C39.5007 17.7188 38.2422 18.0767 36.7763 18.0767ZM36.7763 15.017C37.7763 15.017 38.5746 14.5142 39.1712 13.5085C39.7678 12.5028 40.0632 10.9943 40.0575 8.98295C40.0575 7.65909 39.9212 6.55682 39.6484 5.67614C39.3814 4.79545 39.0007 4.13352 38.5064 3.69034C38.0178 3.24716 37.4411 3.02557 36.7763 3.02557C35.782 3.02557 34.9865 3.52273 34.3899 4.51705C33.7933 5.51136 33.4922 7 33.4865 8.98295C33.4865 10.3239 33.62 11.4432 33.8871 12.3409C34.1598 13.233 34.5433 13.9034 35.0376 14.3523C35.532 14.7955 36.1115 15.017 36.7763 15.017Z" fill="#524743"/>
<path d="M54.3516 7.82812H51.8658C51.8326 7.57292 51.7647 7.34257 51.6619 7.13707C51.5592 6.93158 51.4233 6.75592 51.2543 6.61009C51.0852 6.46425 50.8847 6.35322 50.6527 6.27699C50.424 6.19744 50.1705 6.15767 49.892 6.15767C49.3982 6.15767 48.9723 6.27865 48.6143 6.5206C48.2597 6.76255 47.9863 7.11222 47.794 7.5696C47.6051 8.02699 47.5107 8.58049 47.5107 9.23011C47.5107 9.90625 47.6068 10.473 47.799 10.9304C47.9946 11.3845 48.268 11.7275 48.6193 11.9595C48.974 12.1882 49.3932 12.3026 49.8771 12.3026C50.1489 12.3026 50.3958 12.2678 50.6179 12.1982C50.8433 12.1286 51.0405 12.0275 51.2095 11.8949C51.3819 11.759 51.5227 11.5949 51.6321 11.4027C51.7448 11.2071 51.8227 10.9867 51.8658 10.7415L54.3516 10.7564C54.3085 11.2071 54.1776 11.6513 53.9588 12.0888C53.7434 12.5263 53.4467 12.9257 53.0689 13.2869C52.6911 13.6449 52.2304 13.9299 51.6868 14.142C51.1465 14.3542 50.5268 14.4602 49.8274 14.4602C48.906 14.4602 48.0807 14.258 47.3516 13.8537C46.6257 13.446 46.0523 12.8527 45.6314 12.0739C45.2105 11.295 45 10.3471 45 9.23011C45 8.10985 45.2138 7.16027 45.6413 6.38139C46.0689 5.60251 46.6473 5.01089 47.3764 4.60653C48.1056 4.20218 48.9226 4 49.8274 4C50.4439 4 51.014 4.08617 51.5376 4.25852C52.0613 4.42756 52.522 4.67614 52.9197 5.00426C53.3175 5.32907 53.6406 5.72846 53.8892 6.20242C54.1378 6.67637 54.2919 7.21828 54.3516 7.82812Z" fill="#02B87A"/>
<path d="M65.3699 9.23011C65.3699 10.3504 65.1544 11.3 64.7235 12.0788C64.2927 12.8577 63.7093 13.4493 62.9735 13.8537C62.2411 14.258 61.4191 14.4602 60.5076 14.4602C59.5929 14.4602 58.7692 14.2564 58.0368 13.8487C57.3043 13.4411 56.7226 12.8494 56.2917 12.0739C55.8642 11.295 55.6504 10.3471 55.6504 9.23011C55.6504 8.10985 55.8642 7.16027 56.2917 6.38139C56.7226 5.60251 57.3043 5.01089 58.0368 4.60653C58.7692 4.20218 59.5929 4 60.5076 4C61.4191 4 62.2411 4.20218 62.9735 4.60653C63.7093 5.01089 64.2927 5.60251 64.7235 6.38139C65.1544 7.16027 65.3699 8.10985 65.3699 9.23011ZM62.8542 9.23011C62.8542 8.56723 62.7598 8.0071 62.5708 7.54972C62.3852 7.09233 62.1168 6.74597 61.7654 6.51065C61.4174 6.27533 60.9982 6.15767 60.5076 6.15767C60.0204 6.15767 59.6012 6.27533 59.2498 6.51065C58.8985 6.74597 58.6284 7.09233 58.4395 7.54972C58.2538 8.0071 58.161 8.56723 58.161 9.23011C58.161 9.89299 58.2538 10.4531 58.4395 10.9105C58.6284 11.3679 58.8985 11.7143 59.2498 11.9496C59.6012 12.1849 60.0204 12.3026 60.5076 12.3026C60.9982 12.3026 61.4174 12.1849 61.7654 11.9496C62.1168 11.7143 62.3852 11.3679 62.5708 10.9105C62.7598 10.4531 62.8542 9.89299 62.8542 9.23011Z" fill="#02B87A"/>
<path d="M69.2676 4.1392V14.321H66.8066V4.1392H69.2676Z" fill="#02B87A"/>
<path d="M79.478 4.1392V14.321H77.3899L73.3381 8.4446H73.2734V14.321H70.8125V4.1392H72.9304L76.9375 10.0057H77.022V4.1392H79.478Z" fill="#02B87A"/>
<path d="M86.5289 7.19176C86.4958 6.82718 86.3483 6.5438 86.0865 6.34162C85.8279 6.13613 85.4584 6.03338 84.9778 6.03338C84.6596 6.03338 84.3945 6.07481 84.1824 6.15767C83.9702 6.24053 83.8111 6.35488 83.7051 6.50071C83.599 6.64323 83.5443 6.80729 83.541 6.9929C83.5344 7.14536 83.5642 7.27959 83.6305 7.3956C83.7001 7.5116 83.7995 7.61435 83.9288 7.70384C84.0614 7.79001 84.2205 7.86624 84.4061 7.93253C84.5917 7.99882 84.8005 8.05682 85.0325 8.10653L85.9075 8.3054C86.4113 8.41477 86.8554 8.56061 87.2399 8.7429C87.6277 8.92519 87.9525 9.14228 88.2143 9.39418C88.4795 9.64607 88.68 9.93608 88.8159 10.2642C88.9518 10.5923 89.0214 10.9602 89.0247 11.3679C89.0214 12.0109 88.859 12.5627 88.5375 13.0234C88.216 13.4841 87.7536 13.8371 87.1504 14.0824C86.5505 14.3277 85.8263 14.4503 84.9778 14.4503C84.126 14.4503 83.3836 14.3227 82.7505 14.0675C82.1175 13.8123 81.6253 13.4245 81.274 12.9041C80.9226 12.3838 80.742 11.7259 80.7321 10.9304H83.0886C83.1085 11.2585 83.1963 11.532 83.3521 11.7507C83.5079 11.9695 83.7217 12.1352 83.9934 12.2479C84.2685 12.3606 84.5867 12.4169 84.948 12.4169C85.2794 12.4169 85.5611 12.3722 85.7931 12.2827C86.0285 12.1932 86.2091 12.0689 86.335 11.9098C86.461 11.7507 86.5256 11.5684 86.5289 11.3629C86.5256 11.1707 86.466 11.0066 86.35 10.8707C86.234 10.7315 86.055 10.6122 85.813 10.5128C85.5744 10.41 85.2695 10.3156 84.8983 10.2294L83.8343 9.98082C82.9527 9.77865 82.2583 9.45218 81.7512 9.00142C81.2441 8.54735 80.9922 7.93419 80.9956 7.16193C80.9922 6.5322 81.1613 5.98035 81.5027 5.50639C81.844 5.03243 82.3163 4.66288 82.9196 4.39773C83.5228 4.13258 84.2105 4 84.9828 4C85.7716 4 86.456 4.13423 87.036 4.4027C87.6194 4.66785 88.0718 5.04072 88.3933 5.52131C88.7148 6.00189 88.8788 6.55871 88.8855 7.19176H86.5289Z" fill="#02B87A"/>
</svg>
