<svg width="94" height="29" viewBox="0 0 94 29" fill="none" xmlns="http://www.w3.org/2000/svg">
<path d="M7.78977 23.2386C6.58523 23.2386 5.51136 23.017 4.56818 22.5739C3.63068 22.1307 2.88636 21.5199 2.33523 20.7415C1.78409 19.9631 1.49716 19.071 1.47443 18.0653H5.05398C5.09375 18.7415 5.37784 19.2898 5.90625 19.7102C6.43466 20.1307 7.0625 20.3409 7.78977 20.3409C8.36932 20.3409 8.88068 20.2131 9.32386 19.9574C9.77273 19.696 10.1222 19.3352 10.3722 18.875C10.6278 18.4091 10.7557 17.875 10.7557 17.2727C10.7557 16.6591 10.625 16.1193 10.3636 15.6534C10.108 15.1875 9.75284 14.8239 9.2983 14.5625C8.84375 14.3011 8.32386 14.1676 7.73864 14.1619C7.22727 14.1619 6.73011 14.267 6.24716 14.4773C5.76989 14.6875 5.39773 14.9744 5.13068 15.3381L1.84943 14.75L2.67614 5.54545H13.3466V8.5625H5.71875L5.26705 12.9347H5.36932C5.67614 12.5028 6.1392 12.1449 6.75852 11.8608C7.37784 11.5767 8.07102 11.4347 8.83807 11.4347C9.8892 11.4347 10.8267 11.6818 11.6506 12.1761C12.4744 12.6705 13.125 13.3494 13.6023 14.2131C14.0795 15.071 14.3153 16.0597 14.3097 17.179C14.3153 18.3551 14.0426 19.4006 13.4915 20.3153C12.946 21.2244 12.1818 21.9403 11.1989 22.4631C10.2216 22.9801 9.08523 23.2386 7.78977 23.2386ZM23.7273 23.3835C22.2614 23.3778 21 23.017 19.9432 22.3011C18.892 21.5852 18.0824 20.5483 17.5142 19.1903C16.9517 17.8324 16.6733 16.1989 16.679 14.2898C16.679 12.3864 16.9602 10.7642 17.5227 9.42329C18.0909 8.08239 18.9006 7.0625 19.9517 6.36364C21.0085 5.65909 22.267 5.30682 23.7273 5.30682C25.1875 5.30682 26.4432 5.65909 27.4943 6.36364C28.5511 7.06818 29.3636 8.09091 29.9318 9.43182C30.5 10.767 30.7813 12.3864 30.7756 14.2898C30.7756 16.2045 30.4915 17.8409 29.9233 19.1989C29.3608 20.5568 28.554 21.5937 27.5028 22.3097C26.4517 23.0256 25.1932 23.3835 23.7273 23.3835ZM23.7273 20.3239C24.7273 20.3239 25.5256 19.821 26.1222 18.8153C26.7188 17.8097 27.0142 16.3011 27.0085 14.2898C27.0085 12.9659 26.8722 11.8636 26.5994 10.983C26.3324 10.1023 25.9517 9.44034 25.4574 8.99716C24.9688 8.55398 24.392 8.33239 23.7273 8.33239C22.733 8.33239 21.9375 8.82955 21.3409 9.82386C20.7443 10.8182 20.4432 12.3068 20.4375 14.2898C20.4375 15.6307 20.571 16.75 20.8381 17.6477C21.1108 18.5398 21.4943 19.2102 21.9886 19.6591C22.483 20.1023 23.0625 20.3239 23.7273 20.3239ZM40.2507 23.3835C38.7848 23.3778 37.5234 23.017 36.4666 22.3011C35.4155 21.5852 34.6058 20.5483 34.0376 19.1903C33.4751 17.8324 33.1967 16.1989 33.2024 14.2898C33.2024 12.3864 33.4837 10.7642 34.0462 9.42329C34.6143 8.08239 35.424 7.0625 36.4751 6.36364C37.532 5.65909 38.7905 5.30682 40.2507 5.30682C41.7109 5.30682 42.9666 5.65909 44.0178 6.36364C45.0746 7.06818 45.8871 8.09091 46.4553 9.43182C47.0234 10.767 47.3047 12.3864 47.299 14.2898C47.299 16.2045 47.0149 17.8409 46.4467 19.1989C45.8842 20.5568 45.0774 21.5937 44.0263 22.3097C42.9751 23.0256 41.7166 23.3835 40.2507 23.3835ZM40.2507 20.3239C41.2507 20.3239 42.049 19.821 42.6456 18.8153C43.2422 17.8097 43.5376 16.3011 43.532 14.2898C43.532 12.9659 43.3956 11.8636 43.1229 10.983C42.8558 10.1023 42.4751 9.44034 41.9808 8.99716C41.4922 8.55398 40.9155 8.33239 40.2507 8.33239C39.2564 8.33239 38.4609 8.82955 37.8643 9.82386C37.2678 10.8182 36.9666 12.3068 36.9609 14.2898C36.9609 15.6307 37.0945 16.75 37.3615 17.6477C37.6342 18.5398 38.0178 19.2102 38.5121 19.6591C39.0064 20.1023 39.5859 20.3239 40.2507 20.3239Z" fill="#524A47"/>
<path d="M58.5284 16.5071H56.0426C56.0095 16.2519 55.9415 16.0215 55.8388 15.8161C55.736 15.6106 55.6001 15.4349 55.4311 15.2891C55.2621 15.1432 55.0616 15.0322 54.8295 14.956C54.6009 14.8764 54.3473 14.8366 54.0689 14.8366C53.575 14.8366 53.1491 14.9576 52.7912 15.1996C52.4366 15.4415 52.1631 15.7912 51.9709 16.2486C51.782 16.706 51.6875 17.2595 51.6875 17.9091C51.6875 18.5852 51.7836 19.152 51.9759 19.6094C52.1714 20.0634 52.4448 20.4065 52.7962 20.6385C53.1508 20.8672 53.5701 20.9815 54.054 20.9815C54.3258 20.9815 54.5727 20.9467 54.7947 20.8771C55.0201 20.8075 55.2173 20.7064 55.3864 20.5739C55.5587 20.438 55.6996 20.2739 55.8089 20.0817C55.9216 19.8861 55.9995 19.6657 56.0426 19.4205L58.5284 19.4354C58.4853 19.8861 58.3544 20.3303 58.1357 20.7678C57.9202 21.2053 57.6236 21.6046 57.2457 21.9659C56.8679 22.3239 56.4072 22.6089 55.8636 22.821C55.3234 23.0331 54.7036 23.1392 54.0043 23.1392C53.0829 23.1392 52.2576 22.937 51.5284 22.5327C50.8026 22.125 50.2292 21.5317 49.8082 20.7528C49.3873 19.974 49.1768 19.026 49.1768 17.9091C49.1768 16.7888 49.3906 15.8393 49.8182 15.0604C50.2457 14.2815 50.8241 13.6899 51.5533 13.2855C52.2824 12.8812 53.0994 12.679 54.0043 12.679C54.6207 12.679 55.1908 12.7652 55.7145 12.9375C56.2382 13.1065 56.6989 13.3551 57.0966 13.6832C57.4943 14.008 57.8175 14.4074 58.0661 14.8814C58.3146 15.3554 58.4688 15.8973 58.5284 16.5071ZM69.5467 17.9091C69.5467 19.0294 69.3313 19.9789 68.9004 20.7578C68.4695 21.5367 67.8862 22.1283 67.1504 22.5327C66.4179 22.937 65.5959 23.1392 64.6845 23.1392C63.7697 23.1392 62.9461 22.9354 62.2136 22.5277C61.4811 22.12 60.8994 21.5284 60.4686 20.7528C60.041 19.974 59.8272 19.026 59.8272 17.9091C59.8272 16.7888 60.041 15.8393 60.4686 15.0604C60.8994 14.2815 61.4811 13.6899 62.2136 13.2855C62.9461 12.8812 63.7697 12.679 64.6845 12.679C65.5959 12.679 66.4179 12.8812 67.1504 13.2855C67.8862 13.6899 68.4695 14.2815 68.9004 15.0604C69.3313 15.8393 69.5467 16.7888 69.5467 17.9091ZM67.0311 17.9091C67.0311 17.2462 66.9366 16.6861 66.7477 16.2287C66.5621 15.7713 66.2936 15.425 65.9423 15.1896C65.5943 14.9543 65.175 14.8366 64.6845 14.8366C64.1973 14.8366 63.778 14.9543 63.4267 15.1896C63.0753 15.425 62.8052 15.7713 62.6163 16.2287C62.4307 16.6861 62.3379 17.2462 62.3379 17.9091C62.3379 18.572 62.4307 19.1321 62.6163 19.5895C62.8052 20.0469 63.0753 20.3932 63.4267 20.6286C63.778 20.8639 64.1973 20.9815 64.6845 20.9815C65.175 20.9815 65.5943 20.8639 65.9423 20.6286C66.2936 20.3932 66.5621 20.0469 66.7477 19.5895C66.9366 19.1321 67.0311 18.572 67.0311 17.9091ZM73.4444 12.8182V23H70.9835V12.8182H73.4444ZM83.6548 12.8182V23H81.5668L77.5149 17.1236H77.4503V23H74.9893V12.8182H77.1072L81.1143 18.6847H81.1989V12.8182H83.6548ZM90.7058 15.8707C90.6726 15.5062 90.5252 15.2228 90.2633 15.0206C90.0048 14.8151 89.6352 14.7124 89.1547 14.7124C88.8365 14.7124 88.5713 14.7538 88.3592 14.8366C88.1471 14.9195 87.988 15.0339 87.8819 15.1797C87.7759 15.3222 87.7212 15.4863 87.7179 15.6719C87.7112 15.8243 87.7411 15.9586 87.8074 16.0746C87.877 16.1906 87.9764 16.2933 88.1056 16.3828C88.2382 16.469 88.3973 16.5452 88.5829 16.6115C88.7685 16.6778 88.9773 16.7358 89.2093 16.7855L90.0843 16.9844C90.5881 17.0938 91.0323 17.2396 91.4167 17.4219C91.8045 17.6042 92.1293 17.8213 92.3912 18.0732C92.6563 18.325 92.8568 18.6151 92.9927 18.9432C93.1286 19.2713 93.1982 19.6392 93.2015 20.0469C93.1982 20.6899 93.0358 21.2417 92.7143 21.7024C92.3928 22.1631 91.9305 22.5161 91.3272 22.7614C90.7273 23.0066 90.0031 23.1293 89.1547 23.1293C88.3029 23.1293 87.5604 23.0017 86.9274 22.7464C86.2943 22.4912 85.8021 22.1035 85.4508 21.5831C85.0995 21.0627 84.9189 20.4048 84.9089 19.6094H87.2654C87.2853 19.9375 87.3732 20.2109 87.5289 20.4297C87.6847 20.6484 87.8985 20.8142 88.1703 20.9268C88.4454 21.0395 88.7636 21.0959 89.1248 21.0959C89.4563 21.0959 89.738 21.0511 89.97 20.9616C90.2053 20.8722 90.3859 20.7479 90.5119 20.5888C90.6378 20.4297 90.7025 20.2474 90.7058 20.0419C90.7025 19.8497 90.6428 19.6856 90.5268 19.5497C90.4108 19.4105 90.2318 19.2912 89.9899 19.1918C89.7512 19.089 89.4463 18.9946 89.0751 18.9084L88.0112 18.6598C87.1296 18.4576 86.4352 18.1312 85.9281 17.6804C85.421 17.2263 85.1691 16.6132 85.1724 15.8409C85.1691 15.2112 85.3381 14.6593 85.6795 14.1854C86.0209 13.7114 86.4932 13.3419 87.0964 13.0767C87.6996 12.8116 88.3874 12.679 89.1596 12.679C89.9484 12.679 90.6329 12.8132 91.2129 13.0817C91.7962 13.3468 92.2486 13.7197 92.5701 14.2003C92.8916 14.6809 93.0557 15.2377 93.0623 15.8707H90.7058Z" fill="#02B87A"/>
</svg>
