<svg width="164" height="100" viewBox="0 0 164 100" fill="none" xmlns="http://www.w3.org/2000/svg">
<path d="M23.2133 60.1486C18.7155 60.1486 14.7227 59.3577 11.235 57.7759C7.76634 56.1749 5.03145 53.9737 3.0303 51.1721C1.04822 48.3705 0.038117 45.1496 0 41.5094H15.4374C15.4946 43.5296 16.276 45.1401 17.7816 46.3408C19.3063 47.5414 21.1168 48.1418 23.2133 48.1418C24.8332 48.1418 26.2626 47.7987 27.5014 47.1126C28.7402 46.4075 29.7122 45.4164 30.4174 44.1395C31.1225 42.8626 31.4656 41.376 31.4465 39.6798C31.4656 37.9645 31.1225 36.478 30.4174 35.2201C29.7122 33.9432 28.7402 32.9617 27.5014 32.2756C26.2626 31.5704 24.8332 31.2178 23.2133 31.2178C21.5361 31.2178 19.9828 31.6276 18.5535 32.4471C17.1431 33.2476 16.1044 34.3625 15.4374 35.7919L1.48656 33.0474L3.77358 0.800458H43.1103V13.4934H16.8096L15.6661 26.4151H16.0091C16.924 24.6427 18.5058 23.1751 20.7547 22.0126C23.0036 20.831 25.6146 20.2401 28.5878 20.2401C32.0755 20.2401 35.182 21.0501 37.9074 22.6701C40.6518 24.2901 42.8149 26.5294 44.3968 29.3882C45.9977 32.2279 46.7886 35.506 46.7696 39.2224C46.7886 43.3009 45.8166 46.922 43.8536 50.0858C41.9097 53.2304 39.1748 55.6985 35.6489 57.49C32.1231 59.2624 27.9779 60.1486 23.2133 60.1486Z" fill="black"/>
<path d="M79.1238 60.9491C73.8065 60.93 69.2134 59.7008 65.3445 57.2613C61.4756 54.8218 58.4929 51.3055 56.3965 46.7124C54.3001 42.1193 53.2614 36.6114 53.2804 30.1887C53.2995 23.7469 54.3477 18.2771 56.4251 13.7793C58.5215 9.28149 61.4947 5.86049 65.3445 3.5163C69.2134 1.1721 73.8065 0 79.1238 0C84.4411 0 89.0342 1.18163 92.9031 3.54488C96.772 5.88908 99.7546 9.31008 101.851 13.8079C103.947 18.3057 104.986 23.766 104.967 30.1887C104.967 36.6495 103.919 42.1765 101.822 46.7696C99.726 51.3627 96.7434 54.879 92.8745 57.3185C89.0247 59.7389 84.4411 60.9491 79.1238 60.9491ZM79.1238 48.0274C81.8682 48.0274 84.1171 46.598 85.8705 43.7393C87.6429 40.8614 88.5196 36.3446 88.5006 30.1887C88.5006 26.1673 88.1003 22.8797 87.2999 20.3259C86.4994 17.7721 85.394 15.8853 83.9837 14.6655C82.5734 13.4267 80.9534 12.8073 79.1238 12.8073C76.3794 12.8073 74.14 14.1986 72.4056 16.9811C70.6713 19.7637 69.7851 24.1662 69.747 30.1887C69.7279 34.2863 70.1186 37.6596 70.9191 40.3087C71.7195 42.9388 72.8249 44.8828 74.2353 46.1406C75.6647 47.3985 77.2942 48.0274 79.1238 48.0274Z" fill="black"/>
<path d="M137.929 60.9491C132.611 60.93 128.018 59.7008 124.149 57.2613C120.281 54.8218 117.298 51.3055 115.202 46.7124C113.105 42.1193 112.066 36.6114 112.085 30.1887C112.105 23.7469 113.153 18.2771 115.23 13.7793C117.327 9.28149 120.3 5.86049 124.149 3.5163C128.018 1.1721 132.611 0 137.929 0C143.246 0 147.839 1.18163 151.708 3.54488C155.577 5.88908 158.56 9.31008 160.656 13.8079C162.753 18.3057 163.791 23.766 163.772 30.1887C163.772 36.6495 162.724 42.1765 160.627 46.7696C158.531 51.3627 155.548 54.879 151.68 57.3185C147.83 59.7389 143.246 60.9491 137.929 60.9491ZM137.929 48.0274C140.673 48.0274 142.922 46.598 144.676 43.7393C146.448 40.8614 147.325 36.3446 147.306 30.1887C147.306 26.1673 146.905 22.8797 146.105 20.3259C145.304 17.7721 144.199 15.8853 142.789 14.6655C141.378 13.4267 139.758 12.8073 137.929 12.8073C135.184 12.8073 132.945 14.1986 131.211 16.9811C129.476 19.7637 128.59 24.1662 128.552 30.1887C128.533 34.2863 128.924 37.6596 129.724 40.3087C130.525 42.9388 131.63 44.8828 133.04 46.1406C134.47 47.3985 136.099 48.0274 137.929 48.0274Z" fill="black"/>
<path d="M45.5403 81.3036H37.4786C37.4214 80.6365 37.2689 80.0314 37.0211 79.4883C36.7829 78.9451 36.4494 78.4782 36.0206 78.0875C35.6013 77.6872 35.0915 77.3823 34.4911 77.1727C33.8908 76.9535 33.2094 76.8439 32.4471 76.8439C31.113 76.8439 29.9838 77.1679 29.0595 77.8159C28.1446 78.4639 27.449 79.393 26.9726 80.6032C26.5056 81.8134 26.2722 83.2666 26.2722 84.9628C26.2722 86.7543 26.5104 88.2552 26.9868 89.4654C27.4728 90.6661 28.1732 91.5714 29.088 92.1812C30.0029 92.7816 31.1035 93.0818 32.3899 93.0818C33.1237 93.0818 33.7812 92.9912 34.3625 92.8102C34.9438 92.6196 35.4488 92.348 35.8776 91.9954C36.3065 91.6428 36.6543 91.2188 36.9211 90.7233C37.1974 90.2182 37.3833 89.6512 37.4786 89.0223L45.5403 89.0795C45.445 90.3183 45.0972 91.5809 44.4968 92.8673C43.8965 94.1443 43.0436 95.3259 41.9382 96.4122C40.8424 97.489 39.4845 98.3562 37.8645 99.0137C36.2445 99.6712 34.3625 100 32.2184 100C29.5312 100 27.1203 99.4235 24.9857 98.2704C22.8607 97.1174 21.1788 95.4212 19.94 93.1818C18.7107 90.9424 18.0961 88.2028 18.0961 84.9628C18.0961 81.7038 18.725 78.9594 19.9828 76.7295C21.2407 74.4902 22.9369 72.7987 25.0715 71.6552C27.206 70.5022 29.5883 69.9257 32.2184 69.9257C34.0671 69.9257 35.7681 70.1782 37.3213 70.6832C38.8746 71.1883 40.2373 71.9268 41.4094 72.8988C42.5815 73.8612 43.5249 75.0476 44.2396 76.458C44.9543 77.8683 45.3878 79.4835 45.5403 81.3036Z" fill="#02B87A"/>
<path d="M77.505 84.9628C77.505 88.2218 76.8713 90.971 75.6039 93.2104C74.3365 95.4402 72.626 97.1317 70.4724 98.2847C68.3188 99.4282 65.9174 100 63.2683 100C60.6001 100 58.1892 99.4235 56.0356 98.2704C53.8915 97.1079 52.1858 95.4116 50.9184 93.1818C49.6605 90.9424 49.0316 88.2028 49.0316 84.9628C49.0316 81.7038 49.6605 78.9594 50.9184 76.7295C52.1858 74.4902 53.8915 72.7987 56.0356 71.6552C58.1892 70.5022 60.6001 69.9257 63.2683 69.9257C65.9174 69.9257 68.3188 70.5022 70.4724 71.6552C72.626 72.7987 74.3365 74.4902 75.6039 76.7295C76.8713 78.9594 77.505 81.7038 77.505 84.9628ZM69.3289 84.9628C69.3289 83.2094 69.0954 81.7324 68.6285 80.5317C68.1711 79.3215 67.4897 78.4067 66.5845 77.7873C65.6887 77.1584 64.5833 76.8439 63.2683 76.8439C61.9533 76.8439 60.8431 77.1584 59.9378 77.7873C59.0421 78.4067 58.3607 79.3215 57.8938 80.5317C57.4364 81.7324 57.2077 83.2094 57.2077 84.9628C57.2077 86.7162 57.4364 88.198 57.8938 89.4082C58.3607 90.6089 59.0421 91.5237 59.9378 92.1526C60.8431 92.7721 61.9533 93.0818 63.2683 93.0818C64.5833 93.0818 65.6887 92.7721 66.5845 92.1526C67.4897 91.5237 68.1711 90.6089 68.6285 89.4082C69.0954 88.198 69.3289 86.7162 69.3289 84.9628Z" fill="#02B87A"/>
<path d="M89.1295 70.3259V99.5998H81.1821V70.3259H89.1295Z" fill="#02B87A"/>
<path d="M118.225 70.3259V99.5998H111.592L101.015 84.2195H100.843V99.5998H92.8959V70.3259H99.6426L110.049 85.6489H110.277V70.3259H118.225Z" fill="#02B87A"/>
<path d="M137.764 79.474C137.688 78.521 137.331 77.7778 136.692 77.2441C136.063 76.7105 135.106 76.4437 133.819 76.4437C133 76.4437 132.328 76.5437 131.804 76.7438C131.289 76.9344 130.908 77.1965 130.66 77.53C130.413 77.8635 130.284 78.2447 130.274 78.6735C130.255 79.0261 130.317 79.3453 130.46 79.6312C130.613 79.9076 130.851 80.1601 131.175 80.3888C131.499 80.608 131.913 80.8081 132.419 80.9891C132.924 81.1702 133.524 81.3322 134.22 81.4751L136.621 81.9897C138.241 82.3327 139.627 82.7854 140.78 83.3476C141.933 83.9098 142.877 84.5721 143.611 85.3345C144.344 86.0873 144.883 86.9354 145.226 87.8788C145.578 88.8222 145.759 89.8513 145.769 90.9663C145.759 92.8912 145.278 94.5207 144.325 95.8548C143.372 97.1889 142.01 98.2037 140.237 98.8994C138.474 99.595 136.354 99.9428 133.876 99.9428C131.332 99.9428 129.112 99.5664 127.216 98.8136C125.329 98.0608 123.861 96.903 122.813 95.3402C121.774 93.7679 121.25 91.7572 121.241 89.3082H128.788C128.836 90.2039 129.059 90.9567 129.46 91.5666C129.86 92.1765 130.422 92.6386 131.146 92.9531C131.88 93.2676 132.752 93.4248 133.762 93.4248C134.61 93.4248 135.32 93.32 135.892 93.1103C136.464 92.9007 136.897 92.61 137.193 92.2384C137.488 91.8668 137.641 91.4427 137.65 90.9663C137.641 90.5184 137.493 90.1277 137.207 89.7942C136.931 89.4511 136.473 89.1462 135.835 88.8793C135.196 88.603 134.334 88.3457 133.248 88.1075L130.332 87.4785C127.74 86.9163 125.696 85.9777 124.2 84.6627C122.713 83.3381 121.974 81.5323 121.984 79.2453C121.974 77.3871 122.47 75.7623 123.471 74.3711C124.481 72.9703 125.877 71.8792 127.659 71.0978C129.45 70.3164 131.504 69.9257 133.819 69.9257C136.183 69.9257 138.227 70.3211 139.951 71.1121C141.676 71.903 143.006 73.0179 143.939 74.4568C144.883 75.8862 145.359 77.5586 145.369 79.474H137.764Z" fill="#02B87A"/>
</svg>
